<svg xmlns="http://www.w3.org/2000/svg" width="1200" height="610" viewBox="0 0 1200 610">
<defs>
  <linearGradient id="accent" x1="0" y1="0" x2="1" y2="0">
    <stop offset="0" stop-color="#00F5A0"/>
    <stop offset="1" stop-color="#00C98A"/>
  </linearGradient>
  <filter id="glow" x="-50%" y="-50%" width="200%" height="200%">
    <feGaussianBlur stdDeviation="7" result="blur"/>
    <feMerge><feMergeNode in="blur"/><feMergeNode in="SourceGraphic"/></feMerge>
  </filter>
</defs>
<rect width="1200" height="610" rx="20" fill="#0B0D0D" stroke="#26302D"/><rect x="35" y="30" width="550" height="250" rx="16" fill="#121515" stroke="#26302D"/><rect x="35" y="30" width="4" height="250" rx="2" fill="url(#accent)"/><text x="63" y="78" fill="#F2F5F4" font-family="Arial,Helvetica,sans-serif" font-size="26" font-weight="700">API Architecture</text><text x="63" y="118" fill="#9BA6A3" font-family="Arial,Helvetica,sans-serif" font-size="17">REST &amp; GraphQL systems with clear contracts,</text><text x="63" y="146" fill="#9BA6A3" font-family="Arial,Helvetica,sans-serif" font-size="17">secure authentication, and maintainable service boundaries.</text><rect x="63" y="190" width="56" height="28" rx="14" fill="#151919" stroke="#00C98A"/><text x="91" y="209" text-anchor="middle" fill="#8DFFD4" font-family="Arial,Helvetica,sans-serif" font-size="13">REST</text><rect x="129.4" y="190" width="81" height="28" rx="14" fill="#151919" stroke="#00C98A"/><text x="170" y="209" text-anchor="middle" fill="#8DFFD4" font-family="Arial,Helvetica,sans-serif" font-size="13">GraphQL</text><rect x="220.1" y="190" width="56" height="28" rx="14" fill="#151919" stroke="#00C98A"/><text x="248" y="209" text-anchor="middle" fill="#8DFFD4" font-family="Arial,Helvetica,sans-serif" font-size="13">Auth</text><rect x="286.5" y="190" width="137" height="28" rx="14" fill="#151919" stroke="#00C98A"/><text x="355" y="209" text-anchor="middle" fill="#8DFFD4" font-family="Arial,Helvetica,sans-serif" font-size="13">Service Design</text><rect x="615" y="30" width="550" height="250" rx="16" fill="#121515" stroke="#26302D"/><rect x="615" y="30" width="4" height="250" rx="2" fill="url(#accent)"/><text x="643" y="78" fill="#F2F5F4" font-family="Arial,Helvetica,sans-serif" font-size="26" font-weight="700">Scalable Front-Ends</text><text x="643" y="118" fill="#9BA6A3" font-family="Arial,Helvetica,sans-serif" font-size="17">React and Next.js interfaces built around</text><text x="643" y="146" fill="#9BA6A3" font-family="Arial,Helvetica,sans-serif" font-size="17">performance, accessibility, and clean state flow.</text><rect x="643" y="190" width="64" height="28" rx="14" fill="#151919" stroke="#00C98A"/><text x="675" y="209" text-anchor="middle" fill="#8DFFD4" font-family="Arial,Helvetica,sans-serif" font-size="13">React</text><rect x="717.5" y="190" width="81" height="28" rx="14" fill="#151919" stroke="#00C98A"/><text x="758" y="209" text-anchor="middle" fill="#8DFFD4" font-family="Arial,Helvetica,sans-serif" font-size="13">Next.js</text><rect x="808.2" y="190" width="137" height="28" rx="14" fill="#151919" stroke="#00C98A"/><text x="877" y="209" text-anchor="middle" fill="#8DFFD4" font-family="Arial,Helvetica,sans-serif" font-size="13">Design Systems</text><rect x="955.6" y="190" width="113" height="28" rx="14" fill="#151919" stroke="#00C98A"/><text x="1012" y="209" text-anchor="middle" fill="#8DFFD4" font-family="Arial,Helvetica,sans-serif" font-size="13">Performance</text><rect x="35" y="310" width="550" height="250" rx="16" fill="#121515" stroke="#26302D"/><rect x="35" y="310" width="4" height="250" rx="2" fill="url(#accent)"/><text x="63" y="358" fill="#F2F5F4" font-family="Arial,Helvetica,sans-serif" font-size="26" font-weight="700">Cloud Workflows</text><text x="63" y="398" fill="#9BA6A3" font-family="Arial,Helvetica,sans-serif" font-size="17">CI/CD, deployments, and cloud-native integrations</text><text x="63" y="426" fill="#9BA6A3" font-family="Arial,Helvetica,sans-serif" font-size="17">across modern product stacks.</text><rect x="63" y="470" width="137" height="28" rx="14" fill="#151919" stroke="#00C98A"/><text x="132" y="489" text-anchor="middle" fill="#8DFFD4" font-family="Arial,Helvetica,sans-serif" font-size="13">GitHub Actions</text><rect x="210.39999999999998" y="470" width="73" height="28" rx="14" fill="#151919" stroke="#00C98A"/><text x="247" y="489" text-anchor="middle" fill="#8DFFD4" font-family="Arial,Helvetica,sans-serif" font-size="13">Vercel</text><rect x="293.0" y="470" width="48" height="28" rx="14" fill="#151919" stroke="#00C98A"/><text x="317" y="489" text-anchor="middle" fill="#8DFFD4" font-family="Arial,Helvetica,sans-serif" font-size="13">AWS</text><rect x="351.3" y="470" width="89" height="28" rx="14" fill="#151919" stroke="#00C98A"/><text x="396" y="489" text-anchor="middle" fill="#8DFFD4" font-family="Arial,Helvetica,sans-serif" font-size="13">Firebase</text><rect x="615" y="310" width="550" height="250" rx="16" fill="#121515" stroke="#26302D"/><rect x="615" y="310" width="4" height="250" rx="2" fill="url(#accent)"/><text x="643" y="358" fill="#F2F5F4" font-family="Arial,Helvetica,sans-serif" font-size="26" font-weight="700">System Optimization</text><text x="643" y="398" fill="#9BA6A3" font-family="Arial,Helvetica,sans-serif" font-size="17">Backend tuning, database scaling, real-time</text><text x="643" y="426" fill="#9BA6A3" font-family="Arial,Helvetica,sans-serif" font-size="17">communication, and reliability-minded delivery.</text><rect x="643" y="470" width="97" height="28" rx="14" fill="#151919" stroke="#00C98A"/><text x="691" y="489" text-anchor="middle" fill="#8DFFD4" font-family="Arial,Helvetica,sans-serif" font-size="13">Databases</text><rect x="749.9" y="470" width="89" height="28" rx="14" fill="#151919" stroke="#00C98A"/><text x="794" y="489" text-anchor="middle" fill="#8DFFD4" font-family="Arial,Helvetica,sans-serif" font-size="13">Realtime</text><rect x="848.6999999999999" y="470" width="73" height="28" rx="14" fill="#151919" stroke="#00C98A"/><text x="885" y="489" text-anchor="middle" fill="#8DFFD4" font-family="Arial,Helvetica,sans-serif" font-size="13">Queues</text><rect x="931.3" y="470" width="129" height="28" rx="14" fill="#151919" stroke="#00C98A"/><text x="996" y="489" text-anchor="middle" fill="#8DFFD4" font-family="Arial,Helvetica,sans-serif" font-size="13">Observability</text></svg>
